PathFileType	4	(X/Y/Z)	3_coords_data.trc
DataRate	CameraRate	NumFrames	NumMarkers	Units	OrigDataRate	OrigDataStartFrame	OrigNumFrames
30.0	30.0	9	21	m	30.0	22	65
Frame#	Time	THUMB_TIP	THUMB_IP	THUMB_MCP	THUMB_CMC	INDEX_TIP	INDEX_DIP	INDEX_PIP	INDEX_MCP	MIDDLE_TIP	MIDDLE_DIP	MIDDLE_PIP	MIDDLE_MCP	RING_TIP	RING_DIP	RING_PIP	RING_MCP	PINKY_TIP	PINKY_DIP	PINKY_PIP	PINKY_MCP	WRIST
X1	Y1	Z1	X2	Y2	Z2	X3	Y3	Z3	X4	Y4	Z4	X5	Y5	Z5	X6	Y6	Z6	X7	Y7	Z7	X8	Y8	Z8	X9	Y9	Z9	X10	Y10	Z10	X11	Y11	Z11	X12	Y12	Z12	X13	Y13	Z13	X14	Y14	Z14	X15	Y15	Z15	X16	Y16	Z16	X17	Y17	Z17	X18	Y18	Z18	X19	Y19	Z19	X20	Y20	Z20	X21	Y21	Z21
21	0.7	-0.055867000579833986	-0.014368399620056153	0.9535070190429688	-0.05571780014038086	-0.037470901489257816	0.9621630249023437	-0.07312349700927734	-0.04090470123291016	0.9870269775390625	-0.08877169799804688	-0.020128900527954102	1.0092999877929687	-0.0876094970703125	-0.036573600769042966	0.9769619750976563	-0.07144560241699219	-0.03344200134277344	0.9644600219726562	-0.07436759948730469	-0.03399700164794922	0.9401079711914062	-0.1101449966430664	-0.041174198150634764	0.9553510131835937	-0.07719609832763671	-0.018847299575805665	0.9822020263671875	-0.07179930114746094	-0.01501959991455078	0.9776489868164062	-0.0716719970703125	-0.01056980037689209	0.9505999755859375	-0.11250099945068359	-0.01932309913635254	0.9509739990234375	-0.08403939819335937	-0.005935029983520508	0.9916380004882812	-0.07726930236816407	-0.001504510045051574	0.9891510009765625	-0.07275679779052735	0.00711939001083374	0.9665549926757813	-0.11254399871826172	0.000929090023040771	0.9573740234375	-0.09271880340576172	0.0071453599929809574	1.0034400024414063	-0.07957720184326172	0.010580100059509278	0.9981160278320312	-0.07705570220947265	0.019238500595092772	0.9816950073242188	-0.106572998046875	0.019295000076293947	0.9679970092773438	-0.11715599822998046	-0.0043567299842834474	1.031260009765625
22	0.7333333333333333	-0.055789398193359374	-0.014357099533081055	0.9539879760742187	-0.05574100112915039	-0.03734920120239258	0.9625980224609375	-0.07304299926757812	-0.04085200119018555	0.9873350219726562	-0.08870690155029297	-0.02018790054321289	1.0098200073242187	-0.08766580200195312	-0.036443199157714844	0.9777210083007812	-0.071168701171875	-0.03336429977416992	0.9645679931640625	-0.0741677017211914	-0.034080299377441406	0.940385009765625	-0.11000599670410156	-0.04120330047607422	0.955552001953125	-0.0770593032836914	-0.01902280044555664	0.9826699829101563	-0.07157340240478516	-0.01524549961090088	0.9779829711914062	-0.07152639770507813	-0.01065590000152588	0.950843994140625	-0.11237300109863281	-0.019349800109863282	0.9511270141601562	-0.08351309967041015	-0.005906209945678711	0.9918140258789062	-0.07722910308837891	-0.0015982300043106078	0.9895079956054688	-0.07282080078125	0.007103610038757324	0.9668070068359375	-0.11242500305175782	0.0009583600163459771	0.9575679931640625	-0.09254740142822265	0.007056700229644775	1.003739990234375	-0.07945320129394531	0.010477499961853027	0.9983330078125	-0.07695670318603516	0.019192399978637694	0.9819929809570312	-0.10648799896240234	0.019285600662231447	0.9682459716796875	-0.11701000213623047	-0.004428979873657227	1.03118994140625
23	0.7666666666666667	-0.05564640045166016	-0.014486599922180175	0.9542169799804687	-0.055573898315429686	-0.03761550140380859	0.9625549926757813	-0.07305370330810547	-0.04093790054321289	0.9875809936523438	-0.0885779037475586	-0.020195199966430665	1.0100499877929687	-0.08740190124511718	-0.036714199066162106	0.9773880004882812	-0.07114029693603516	-0.03346900177001953	0.9646320190429688	-0.07415679931640624	-0.03410309982299805	0.940625	-0.11004900360107422	-0.041222900390625	0.9558660278320312	-0.0771885986328125	-0.018858600616455078	0.982760009765625	-0.07154329681396485	-0.015228199958801269	0.9781530151367187	-0.07147679901123047	-0.010637800216674804	0.9511190185546875	-0.11238800048828125	-0.019400299072265623	0.9514650268554687	-0.08404609680175781	-0.005861599922180175	0.9922100219726563	-0.07718199920654296	-0.001540979981422424	0.9895859985351563	-0.07272039794921875	0.007137030124664307	0.967197998046875	-0.11231700134277343	0.000903416991233825	0.9578839721679687	-0.09264009857177734	0.0072076101303100585	1.004010009765625	-0.07940509796142578	0.010428299903869629	0.9985700073242187	-0.076822998046875	0.019225099563598632	0.9823099975585937	-0.1064000015258789	0.019259599685668944	0.96847998046875	-0.11703399658203124	-0.0043751997947692875	1.03168994140625
24	0.8	-0.05563779830932617	-0.014529600143432617	0.9541580200195312	-0.05567649841308594	-0.03769070053100586	0.9627940063476562	-0.0731602020263672	-0.04084930038452148	0.9878610229492187	-0.08876229858398438	-0.020226699829101562	1.0101099853515625	-0.08754630279541016	-0.03679410171508789	0.9770469970703125	-0.07120670318603516	-0.03334130096435547	0.964666015625	-0.074239501953125	-0.03413460159301758	0.9407760009765626	-0.11005699920654297	-0.04120759963989258	0.95602001953125	-0.07711100006103516	-0.019106700897216798	0.9830679931640625	-0.07152149963378907	-0.015291199684143067	0.9782869873046875	-0.0715447998046875	-0.010641799926757813	0.9511959838867188	-0.11255500030517578	-0.01938240051269531	0.9516389770507813	-0.08415519714355468	-0.005942609786987305	0.9926909790039062	-0.07712039947509766	-0.0015112799406051631	0.989718017578125	-0.07282089996337891	0.007103929996490478	0.967219970703125	-0.11243099975585938	0.0009395130276679991	0.9580130004882812	-0.0924072036743164	0.0069800100326538085	1.004030029296875	-0.07930899810791016	0.01050059986114502	0.998655029296875	-0.07687000274658203	0.019190000534057616	0.9823460083007812	-0.10648600006103516	0.019273300170898438	0.9686630249023438	-0.11708499908447266	-0.004261340141296387	1.0318299560546875
25	0.8333333333333334	-0.05570439910888672	-0.014537300109863281	0.9542960205078125	-0.05576259994506836	-0.037595401763916014	0.96289697265625	-0.07320850372314452	-0.040825000762939455	0.9879530029296875	-0.08868260192871094	-0.020104000091552734	1.0104099731445313	-0.08758679962158203	-0.03630849838256836	0.9784290161132813	-0.07134519958496094	-0.03347850036621094	0.9648900146484375	-0.0742843017578125	-0.03409349822998047	0.9409219970703125	-0.11022100067138672	-0.04109780120849609	0.9562249755859376	-0.07723789978027344	-0.018817699432373047	0.9830009765625	-0.07168740081787109	-0.01508590030670166	0.9784450073242188	-0.07158519744873047	-0.010582799911499024	0.9513759765625	-0.11263500213623047	-0.01932029914855957	0.9517659912109375	-0.08425530242919922	-0.005814499855041504	0.9927579956054687	-0.07721829986572265	-0.001507320046424865	0.9899550170898438	-0.07280549621582032	0.00715857982635498	0.9672940063476563	-0.11247000122070312	0.00101951003074646	0.9581259765625	-0.092668701171875	0.007065370082855225	1.0041799926757813	-0.07942510223388671	0.01046840000152588	0.9989000244140624	-0.07695619964599609	0.019248800277709963	0.982468994140625	-0.10652799987792969	0.019347299575805665	0.9687630004882812	-0.11704199981689453	-0.004248189926147461	1.0319000244140626
26	0.8666666666666667	-0.05585260009765625	-0.014507800102233888	0.9547130126953125	-0.05591619873046875	-0.03751860046386719	0.9630900268554687	-0.07336260223388671	-0.040831600189208984	0.988114013671875	-0.08891269683837891	-0.02008090019226074	1.0103499755859375	-0.08761280059814452	-0.03641510009765625	0.9783140258789063	-0.07154019927978515	-0.03324670028686524	0.9657009887695313	-0.07452259826660156	-0.03403030014038086	0.94118701171875	-0.11032499694824219	-0.04106050109863281	0.9563889770507813	-0.07732099914550782	-0.018866600036621092	0.9833170166015625	-0.0717291030883789	-0.015130000114440918	0.9786729736328125	-0.0717570037841797	-0.010530500411987305	0.9515969848632813	-0.11258799743652344	-0.019253299713134765	0.9519110107421875	-0.08431939697265625	-0.005765769958496094	0.9929030151367187	-0.07733309936523437	-0.001413149952888488	0.9901199951171875	-0.07301580047607421	0.007208409786224365	0.9675349731445313	-0.11263099670410157	0.001027600049972534	0.958301025390625	-0.09216159820556641	0.007038259983062744	1.0041599731445312	-0.07950389862060547	0.010564700126647949	0.99906298828125	-0.0770615005493164	0.019343700408935547	0.9827000122070313	-0.10670899963378906	0.019388999938964844	0.9689829711914062	-0.1172239990234375	-0.004180739879608155	1.03222998046875
27	0.9	-0.055904998779296874	-0.01458899974822998	0.9549760131835937	-0.056006698608398436	-0.03764709854125976	0.96331201171875	-0.07348619842529297	-0.04076940155029297	0.9883629760742187	-0.08899019622802734	-0.020050899505615234	1.0106799926757812	-0.08784439849853516	-0.03633819961547852	0.9785280151367187	-0.07165660095214844	-0.03330580139160156	0.9656179809570312	-0.0744999008178711	-0.034037300109863285	0.9412849731445313	-0.11031800079345704	-0.041062801361083985	0.9565040283203124	-0.07742240142822265	-0.01887929916381836	0.983375	-0.07185929870605469	-0.01504699993133545	0.9788099975585938	-0.07182969665527343	-0.01052180004119873	0.9517899780273438	-0.11264299774169922	-0.019263900756835938	0.9521090087890625	-0.08455989837646484	-0.005833240032196045	0.9932449951171874	-0.07747709655761718	-0.001467429995536804	0.9904140014648437	-0.07307630157470703	0.007255259990692139	0.9676900024414062	-0.11265599822998047	0.0010656700134277339	0.95852001953125	-0.09198919677734375	0.0070263900756835935	1.0038900146484375	-0.07965799713134766	0.010710499763488769	0.9992739868164062	-0.07719930267333984	0.019322500228881836	0.9827550048828125	-0.10674099731445312	0.01942620086669922	0.9691380004882812	-0.11739399719238282	-0.004126410007476807	1.03252001953125
28	0.9333333333333333	-0.0558484001159668	-0.014575499534606934	0.9551259765625	-0.05609600067138672	-0.03764369964599609	0.9634520263671875	-0.0735602035522461	-0.04072800064086914	0.9887160034179687	-0.08917120361328125	-0.02016670036315918	1.0108900146484374	-0.08786260223388671	-0.036332401275634765	0.9785679931640625	-0.071693603515625	-0.033283199310302734	0.9655650024414062	-0.07452960205078125	-0.03400510025024414	0.9414860229492188	-0.11041300201416016	-0.04100749969482422	0.9566680297851563	-0.0776885986328125	-0.018724599838256837	0.9835469970703125	-0.0718833999633789	-0.01516409969329834	0.9790969848632812	-0.07183779907226563	-0.010512200355529785	0.95202197265625	-0.11268099975585938	-0.01916740036010742	0.9523560180664062	-0.08438629913330079	-0.00575993013381958	0.9931900024414062	-0.07750830078125	-0.0014757599830627442	0.9905960083007812	-0.07316750335693359	0.007241650104522705	0.9678690185546875	-0.11273400115966797	0.001119709968566894	0.958760009765625	-0.09226170349121093	0.007026050090789795	1.0048599853515625	-0.07969300079345704	0.010602000236511231	0.9994099731445313	-0.07718679809570313	0.01935770034790039	0.9829749755859375	-0.10687599945068359	0.0194822998046875	0.9694359741210937	-0.11748500061035157	-0.004153979778289795	1.03272998046875
29	0.9666666666666667	-0.055766498565673825	-0.014687999725341797	0.9551170043945313	-0.05609120178222656	-0.0377661018371582	0.9636669921875	-0.073529296875	-0.040826499938964846	0.9887650146484375	-0.08909970092773438	-0.02018600082397461	1.0112100219726563	-0.0875448989868164	-0.036267898559570313	0.9787080078125	-0.07167759704589843	-0.03332889938354492	0.965844970703125	-0.07452339935302735	-0.03397079849243164	0.9417100219726563	-0.11035900115966797	-0.04102050018310547	0.9568809814453125	-0.07762699890136719	-0.01882419967651367	0.9839739990234375	-0.07185980224609376	-0.01519659996032715	0.9792210083007813	-0.07186879730224609	-0.010521100044250489	0.952	-0.11270600128173829	-0.01917259979248047	0.9525759887695312	-0.08473770141601562	-0.005748600006103516	0.9935570068359375	-0.0775	-0.0014501299858093262	0.9907440185546875	-0.0731322021484375	0.007230380058288574	0.9680469970703125	-0.11270099639892578	0.0011351900100708	0.95897998046875	-0.09295770263671875	0.007185090065002442	1.0053400268554689	-0.0796344985961914	0.01065410041809082	0.9994959716796875	-0.07720339965820312	0.01931369972229004	0.9831019897460938	-0.10685700225830078	0.019490800857543945	0.9696129760742187	-0.11750399780273438	-0.0041791901588439945	1.0326199951171875
